<?xml version="1.0" encoding="utf-8"?>
<!-- Generator: Adobe Illustrator 24.1.1, SVG Export Plug-In . SVG Version: 6.00 Build 0)  -->
<svg version="1.1" id="Layer_1" xmlns="http://www.w3.org/2000/svg" xmlns:xlink="http://www.w3.org/1999/xlink" x="0px" y="0px"
	 viewBox="0 0 64 64" style="enable-background:new 0 0 64 64;" xml:space="preserve">
<style type="text/css">
	.st0{display:none;}
	.st1{display:inline;opacity:0.6;}
	.st2{fill:#FFFFFF;}
	.st3{display:inline;}
	.st4{opacity:0.6;}
	.st5{opacity:0.6;fill:#FFFFFF;enable-background:new    ;}
</style>
<g class="st0">
	<g class="st1">
		<path class="st2" d="M20.9,6.3c0,0,0.6,0,0.6,0.6v3.2l0.2,32.8c-2.1-0.2-3.7-2-3.7-4.1l-0.1-14.4c0-4.4,1.3-16.2,2.5-17.8V6.5
			C20.6,6.4,20.7,6.3,20.9,6.3 M20.9,4.3c-0.7,0-1.4,0.3-2,0.9v0.1c-2,2.4-3,15.9-3,19.1L16,38.8c0,3.4,2.8,6.1,6.2,6.1l0,0l0,0
			c0.8,0,1.5-0.7,1.5-1.5l-0.2-33.3V6.9C23.5,5.3,22.2,4.3,20.9,4.3L20.9,4.3z"/>
	</g>
	<g class="st3">
		<path class="st2" d="M21.5,45.3c0.1,0,0.2,0.1,0.2,0.2v8.4c0,1.8-1.4,3.2-3.2,3.2c-1.7,0-3-1.4-3-3V51
			C15.8,47.7,18.9,46.1,21.5,45.3L21.5,45.3 M21.5,43.3c-0.2,0-0.4,0-0.6,0.1c-2.9,0.9-7.1,2.9-7.4,7.6v3.2c0,2.8,2.2,5,5,5l0,0
			c2.9,0,5.2-2.3,5.2-5.2v-8.4C23.7,44.3,22.7,43.3,21.5,43.3L21.5,43.3z"/>
	</g>
</g>
<g>
	<path class="st2" d="M37.8,42.2l0.2,2c2.7-0.1,6.1,0.3,7.5,3.4l1.1,2.9c0.5,1.6-0.2,3.3-1.8,3.9c-0.3,0.1-0.6,0.2-0.8,0.2
		c-1.4,0.1-2.8-0.8-3.3-2.1l-2.9-7.9c0,0,0-0.1,0-0.2c0.1-0.1,0.1-0.1,0.2-0.1L37.8,42.2 M37.8,42.2c-1.4,0.1-2.4,1.6-1.8,3l2.9,7.9
		c0.8,2.2,3,3.6,5.3,3.4c0.4,0,0.9-0.2,1.3-0.3c2.6-0.9,4-3.9,3-6.4l-1-3C45.4,42.5,40.9,42,37.8,42.2
		C37.9,42.2,37.8,42.2,37.8,42.2L37.8,42.2z"/>
</g>
<path class="st2" d="M22.3,9.5L22.3,9.5c0.2,0,0.4,0.1,0.5,0.4l1.2,3l11.4,30.7c-0.2,0-0.4,0.1-0.6,0.2c-1.9,0.2-3.6-1-4.3-2.7
	l-5-13.5c-1.6-4.2-4.4-15.7-3.7-17.5l0-0.1C21.8,9.8,21.9,9.5,22.3,9.5 M22.1,7.5c-0.9,0.1-1.8,0.7-2.2,1.7l0,0.1
	c-1,3,2.6,15.9,3.7,19l5,13.5c1,2.6,3.6,4.2,6.4,4c0.5,0,1.1-0.2,1.6-0.3c0.8-0.3,1.2-1.2,0.9-2L25.9,12.2l-1.2-3
	C24.3,8,23.1,7.4,22.1,7.5L22.1,7.5z"/>
<g>
	<g class="st4">
		<path class="st2" d="M26.1,44.3c0,0,0.1,0,0.2,0.1s0,0.2,0,0.2l-2.9,7.9c-0.5,1.4-1.8,2.3-3.3,2.1c-0.3,0-0.6-0.1-0.8-0.2
			c-0.8-0.3-1.3-0.8-1.7-1.6s-0.4-1.5-0.1-2.3l1.1-2.9C19.9,44.5,23.4,44,26.1,44.3L26.1,44.3 M26.3,42.3
			C26.3,42.3,26.2,42.3,26.3,42.3c-3.1-0.2-7.7,0.3-9.5,4.6l-1.2,2.9c-0.9,2.6,0.4,5.5,3,6.4c0.5,0.1,0.9,0.3,1.3,0.3
			c2.3,0.2,4.5-1.1,5.3-3.4l2.9-7.9C28.6,43.9,27.7,42.4,26.3,42.3L26.3,42.3z"/>
	</g>
	<path class="st5" d="M41.8,9.6c0.4,0,0.5,0.2,0.5,0.3l0,0.1c0.6,2-2.2,13.5-3.7,17.5l-5,13.5c-0.7,1.7-2.5,2.9-4.3,2.7
		c-0.2,0-0.4,0-0.6-0.2L40.1,13l1.2-3C41.4,9.6,41.7,9.6,41.8,9.6 M41.9,7.6c-1.1-0.1-2.1,0.4-2.7,1.7l-1.2,3L26.6,43.5
		c-0.3,0.8,0.2,1.6,0.9,2c0.5,0.2,1.1,0.3,1.6,0.3c2.7,0.2,5.3-1.3,6.4-4l5-13.5c1.1-3,4.8-15.9,3.7-19l0-0.1
		C43.8,8.3,42.9,7.7,41.9,7.6L41.9,7.6z"/>
</g>
</svg>
